<svg viewBox="0 0 76 62" fill="none" xmlns="http://www.w3.org/2000/svg">
<path d="M57 30C57 39.9411 48.9411 48 39 48C29.0589 48 21 39.9411 21 30C21 20.0589 29.0589 12 39 12C48.9411 12 57 20.0589 57 30Z"/>
<path fill-rule="evenodd" clip-rule="evenodd" d="M9.06456 26.4007C7.05044 28.2539 5.10514 30.0437 3.26648 31.5479C2.41156 32.2474 1.15152 32.1213 0.452098 31.2664C-0.247325 30.4115 -0.121273 29.1514 0.733644 28.452C2.48131 27.0222 4.35334 25.2999 6.40922 23.4084L6.47555 23.3473C8.5411 21.447 10.7735 19.3955 13.1546 17.4055C17.9058 13.4346 23.3753 9.59767 29.6164 7.5445C35.9188 5.47119 42.9409 5.24034 50.6758 8.37258C58.3547 11.4822 66.6053 17.852 75.5452 28.7301C76.2465 29.5835 76.1233 30.8438 75.2699 31.5451C74.4165 32.2464 73.1562 32.1232 72.4549 31.2698C63.7672 20.6986 56.0247 14.8542 49.1744 12.0801C42.3799 9.32868 36.3365 9.54469 30.8664 11.3442C25.3352 13.1638 20.3253 16.6256 15.7197 20.4748C13.4223 22.3948 11.2569 24.3838 9.18383 26.291L9.06456 26.4007Z"/>
<path fill-rule="evenodd" clip-rule="evenodd" d="M9.0646 34.0614C7.05434 32.2257 5.10801 30.4484 3.26123 28.9479C2.40395 28.2514 1.14434 28.3817 0.447818 29.239C-0.248703 30.0963 -0.118381 31.3559 0.738901 32.0524C2.49491 33.4791 4.3678 35.1893 6.4185 37.0619L6.5001 37.1364C8.56638 39.0231 10.795 41.0553 13.1696 43.0221C17.9082 46.947 23.3548 50.7221 29.5788 52.7108C35.8644 54.7192 42.8665 54.8802 50.5966 51.7015C58.2711 48.5457 66.5418 42.1498 75.5409 31.2751L72.4592 28.7249C63.7084 39.2996 55.9374 45.1804 49.0754 48.0021C42.2691 50.8009 36.2399 50.64 30.7963 48.9006C25.2911 47.1416 20.3107 43.743 15.7211 39.9416C13.4317 38.0452 11.271 36.0761 9.1973 34.1825L9.0646 34.0614Z"/>
<path d="M68.3887 3.43921L11.3887 58.4392" stroke="#2F5636" stroke-width="6" stroke-linecap="round"/>
</svg>
