<svg viewBox="0 0 77 30" fill="none" xmlns="http://www.w3.org/2000/svg">
<path d="M3.28603 0.468295C2.4401 -0.241961 1.17855 -0.13197 0.468295 0.713967C-0.241961 1.5599 -0.13197 2.82145 0.713967 3.5317L3.28603 0.468295ZM76.3923 3.4358C77.1853 2.66686 77.2047 1.40068 76.4358 0.607708C75.6669 -0.185263 74.4007 -0.204742 73.6077 0.564199L76.3923 3.4358ZM25.4676 27.5996C25.2757 28.6874 26.0021 29.7247 27.0899 29.9165C28.1777 30.1083 29.215 29.382 29.4068 28.2942L25.4676 27.5996ZM47.5932 28.2942C47.785 29.382 48.8223 30.1083 49.9101 29.9165C50.9979 29.7247 51.7243 28.6874 51.5325 27.5996L47.5932 28.2942ZM67.4077 18.4396C67.8745 19.4406 69.0645 19.8738 70.0656 19.4069C71.0666 18.9401 71.4997 17.7502 71.0329 16.7491L67.4077 18.4396ZM4.56148 17.116C3.92792 18.0208 4.14782 19.2679 5.05263 19.9015C5.95744 20.535 7.20453 20.3151 7.83809 19.4103L4.56148 17.116ZM0.713967 3.5317C10.4432 11.7005 20.8466 20.0963 33.1458 22.1433C45.672 24.2281 59.6294 19.6907 76.3923 3.4358L73.6077 0.564199C57.3706 16.3093 44.6269 19.9991 33.8025 18.1976C22.7512 16.3582 13.1546 8.754 3.28603 0.468295L0.713967 3.5317ZM27.0304 18.7363L25.4676 27.5996L29.4068 28.2942L30.9696 19.4309L27.0304 18.7363ZM46.0304 19.4309L47.5932 28.2942L51.5325 27.5996L49.9696 18.7363L46.0304 19.4309ZM63.1815 9.37649L67.4077 18.4396L71.0329 16.7491L66.8068 7.68601L63.1815 9.37649ZM10.2972 8.9245L4.56148 17.116L7.83809 19.4103L13.5739 11.2188L10.2972 8.9245Z" fill="black"/>
</svg>
