<svg width="99" height="199" viewBox="0 0 99 199" fill="none" xmlns="http://www.w3.org/2000/svg">
<path fill-rule="evenodd" clip-rule="evenodd" d="M49.5 99C76.8381 99 99 76.8381 99 49.5C99 22.1619 76.8381 0 49.5 0C22.1619 0 0 22.1619 0 49.5C0 76.8381 22.1619 99 49.5 99ZM50 75C64.3594 75 76 63.3594 76 49C76 34.6406 64.3594 23 50 23C35.6406 23 24 34.6406 24 49C24 63.3594 35.6406 75 50 75Z" fill="#1F2006"/>
<path d="M37 91C37 83.8203 42.8203 78 50 78C57.1797 78 63 83.8203 63 91V186C63 193.18 57.1797 199 50 199C42.8203 199 37 193.18 37 186V91Z" fill="#1F2006"/>
<path d="M57 130H88V152H57V130Z" fill="#1F2006"/>
<path d="M57 161H88V183H57V161Z" fill="#1F2006"/>
</svg>
